<svg width="200" height="200" viewBox="0 0 200 200" fill="none" xmlns="http://www.w3.org/2000/svg">
<rect width="200" height="200" fill="#A234C7"/>
<path d="M64.7243 100.818C64.7243 104.866 63.9372 108.281 62.3628 111.063C60.7885 113.833 58.6637 115.934 55.9885 117.366C53.3134 118.787 50.3304 119.497 47.0397 119.497C43.7253 119.497 40.7305 118.781 38.0553 117.349C35.392 115.905 33.2731 113.798 31.6988 111.028C30.1363 108.246 29.355 104.843 29.355 100.818C29.355 96.7699 30.1363 93.3608 31.6988 90.5909C33.2731 87.8092 35.392 85.7081 38.0553 84.2876C40.7305 82.8553 43.7253 82.1392 47.0397 82.1392C50.3304 82.1392 53.3134 82.8553 55.9885 84.2876C58.6637 85.7081 60.7885 87.8092 62.3628 90.5909C63.9372 93.3608 64.7243 96.7699 64.7243 100.818ZM54.5681 100.818C54.5681 98.6402 54.2781 96.8054 53.6981 95.3139C53.1299 93.8106 52.2835 92.6742 51.159 91.9048C50.0463 91.1236 48.6732 90.733 47.0397 90.733C45.4062 90.733 44.0271 91.1236 42.9026 91.9048C41.7899 92.6742 40.9436 93.8106 40.3635 95.3139C39.7954 96.8054 39.5113 98.6402 39.5113 100.818C39.5113 102.996 39.7954 104.837 40.3635 106.34C40.9436 107.832 41.7899 108.968 42.9026 109.749C44.0271 110.519 45.4062 110.903 47.0397 110.903C48.6732 110.903 50.0463 110.519 51.159 109.749C52.2835 108.968 53.1299 107.832 53.6981 106.34C54.2781 104.837 54.5681 102.996 54.5681 100.818ZM97.2551 82.6364V119H89.0164L75.8772 99.8949H75.6642V119H65.792V82.6364H74.1727L87.0988 101.67H87.3829V82.6364H97.2551ZM103.894 119.568C102.52 119.568 101.343 119.089 100.36 118.13C99.3895 117.159 98.9101 115.982 98.922 114.597C98.9101 113.247 99.3895 112.093 100.36 111.134C101.343 110.175 102.52 109.696 103.894 109.696C105.196 109.696 106.344 110.175 107.338 111.134C108.344 112.093 108.853 113.247 108.865 114.597C108.853 115.52 108.611 116.36 108.137 117.118C107.676 117.864 107.072 118.461 106.326 118.911C105.58 119.349 104.77 119.568 103.894 119.568ZM110.55 119V82.6364H120.422V97.3381H120.919L131.857 82.6364H143.362L131.075 98.8295L143.646 119H131.857L123.689 105.364L120.422 109.625V119H110.55ZM142.792 119V82.6364H158.488C161.187 82.6364 163.548 83.1276 165.573 84.1101C167.597 85.0926 169.171 86.5071 170.296 88.3537C171.42 90.2003 171.982 92.4138 171.982 94.9943C171.982 97.5985 171.402 99.7943 170.242 101.582C169.094 103.369 167.478 104.719 165.395 105.63C163.323 106.541 160.903 106.997 158.133 106.997H148.758V99.3267H156.144C157.304 99.3267 158.293 99.1847 159.109 98.9006C159.938 98.6046 160.571 98.1371 161.009 97.4979C161.459 96.8587 161.684 96.0241 161.684 94.9943C161.684 93.9527 161.459 93.1063 161.009 92.4553C160.571 91.7924 159.938 91.3071 159.109 90.9993C158.293 90.6797 157.304 90.5199 156.144 90.5199H152.664V119H142.792ZM164.099 102.31L173.19 119H162.465L153.587 102.31H164.099Z" fill="white"/>
</svg>
